# xmcd
#
# Track frame offsets:
#	150
#	16640
#	30248
#	49558
#	67913
#	84932
#	104759
#	122476
#	137669
#	161329
#	177762
#	194791
#	208121
#	232415
#	246919
#
# Disc length: 3492 seconds
#
# Revision: 0
# Processed by: cddbd v1.5.2PL0 Copyright (c) Steve Scherf et al.
# Submitted via: SynApp - FreeCDDB Version: 2.5
#
DISCID=c40da20f
DTITLE=Various Artist - Country goes Classic
DYEAR=2004
DGENRE=Country
TTITLE0=Anthony Ventura and Orchester and Band - JILL'S THEME
TTITLE1=Tom Astor and Jonny Hill - SOME BROKEN HEARTS NEVER MEND
TTITLE2=Linda Feller - WENN DU SAGST GOOD BYE
TTITLE3=Gunter Emmerlich - JETZT IST ES ZU SPÄT
TTITLE4=Tom Astor - FLIEG JUNGER ADLER
TTITLE5=Deborah Sasson - BLUE BAYOU
TTITLE6=Jonny Hill - LUCILLE
TTITLE7=Nils Tuxen and Band and Orchester - HITMEDLEY
TTITLE8=Linda Feller - ON A BUS TO ST. CCLOUD
TTITLE9=Gunter Emmerlich - WAND'RIN' STAR
TTITLE10=Tom Astor - DOCH ICH HABE DICH GELIEBT
TTITLE11=Linda Feller - STAND BY YOUR MAN
TTITLE12=Jonny Hill - RUF TEDDYBÄR 1-4
TTITLE13=Orchester and Band - ROSEGARDEN
TTITLE14=L. Feller and G. Emmerlich and D. Sasson - AMAZING GRACE
EXTD=
EXTT0=
EXTT1=
EXTT2=
EXTT3=
EXTT4=
EXTT5=
EXTT6=
EXTT7=
EXTT8=
EXTT9=
EXTT10=
EXTT11=
EXTT12=
EXTT13=
EXTT14=
PLAYORDER=
